<svg id="visual" viewBox="0 0 900 600" width="900" height="600" xmlns="http://www.w3.org/2000/svg" xmlns:xlink="http://www.w3.org/1999/xlink" version="1.1"><rect x="0" y="0" width="900" height="600" fill="#fff"></rect><defs><linearGradient id="grad1_0" x1="33.3%" y1="0%" x2="100%" y2="100%"><stop offset="20%" stop-color="#a46c8c" stop-opacity="1"></stop><stop offset="80%" stop-color="#a46c8c" stop-opacity="1"></stop></linearGradient></defs><defs><linearGradient id="grad1_1" x1="33.3%" y1="0%" x2="100%" y2="100%"><stop offset="20%" stop-color="#a46c8c" stop-opacity="1"></stop><stop offset="80%" stop-color="#d2b4c4" stop-opacity="1"></stop></linearGradient></defs><defs><linearGradient id="grad1_2" x1="33.3%" y1="0%" x2="100%" y2="100%"><stop offset="20%" stop-color="#ffffff" stop-opacity="1"></stop><stop offset="80%" stop-color="#d2b4c4" stop-opacity="1"></stop></linearGradient></defs><defs><linearGradient id="grad2_0" x1="0%" y1="0%" x2="66.7%" y2="100%"><stop offset="20%" stop-color="#a46c8c" stop-opacity="1"></stop><stop offset="80%" stop-color="#a46c8c" stop-opacity="1"></stop></linearGradient></defs><defs><linearGradient id="grad2_1" x1="0%" y1="0%" x2="66.7%" y2="100%"><stop offset="20%" stop-color="#d2b4c4" stop-opacity="1"></stop><stop offset="80%" stop-color="#a46c8c" stop-opacity="1"></stop></linearGradient></defs><defs><linearGradient id="grad2_2" x1="0%" y1="0%" x2="66.7%" y2="100%"><stop offset="20%" stop-color="#d2b4c4" stop-opacity="1"></stop><stop offset="80%" stop-color="#ffffff" stop-opacity="1"></stop></linearGradient></defs><g transform="translate(900, 0)"><path d="M0 486.7C-55.2 462.8 -110.3 438.9 -174.1 420.4C-237.9 401.8 -310.3 388.5 -344.2 344.2C-378.1 299.8 -373.5 224.4 -390.8 161.9C-408.1 99.3 -447.4 49.7 -486.7 0L0 0Z" fill="#e9d9e1"></path><path d="M0 324.5C-36.8 308.6 -73.6 292.6 -116.1 280.2C-158.6 267.9 -206.9 259 -229.5 229.5C-252 199.9 -249 149.6 -260.5 107.9C-272.1 66.2 -298.3 33.1 -324.5 0L0 0Z" fill="#bb8fa8"></path><path d="M0 162.2C-18.4 154.3 -36.8 146.3 -58 140.1C-79.3 133.9 -103.4 129.5 -114.7 114.7C-126 99.9 -124.5 74.8 -130.3 54C-136 33.1 -149.1 16.6 -162.2 0L0 0Z" fill="#a46c8c"></path></g><g transform="translate(0, 600)"><path d="M0 -486.7C61.1 -462.4 122.3 -438 167.2 -403.7C212.2 -369.5 241 -325.4 291.3 -291.3C341.7 -257.2 413.5 -233.2 449.7 -186.3C485.9 -139.4 486.3 -69.7 486.7 0L0 0Z" fill="#e9d9e1"></path><path d="M0 -324.5C40.8 -308.2 81.5 -292 111.5 -269.2C141.5 -246.3 160.7 -216.9 194.2 -194.2C227.8 -171.5 275.7 -155.4 299.8 -124.2C323.9 -92.9 324.2 -46.5 324.5 0L0 0Z" fill="#bb8fa8"></path><path d="M0 -162.2C20.4 -154.1 40.8 -146 55.7 -134.6C70.7 -123.2 80.3 -108.5 97.1 -97.1C113.9 -85.7 137.8 -77.7 149.9 -62.1C162 -46.5 162.1 -23.2 162.2 0L0 0Z" fill="#a46c8c"></path></g></svg>