<svg id="visual" viewBox="0 0 900 600" width="900" height="600" xmlns="http://www.w3.org/2000/svg" xmlns:xlink="http://www.w3.org/1999/xlink" version="1.1"><rect x="0" y="0" width="900" height="600" fill="#a46c8c"></rect><defs><linearGradient id="grad1_0" x1="33.3%" y1="0%" x2="100%" y2="100%"><stop offset="20%" stop-color="#ffffff" stop-opacity="1"></stop><stop offset="80%" stop-color="#ffffff" stop-opacity="1"></stop></linearGradient></defs><defs><linearGradient id="grad1_1" x1="33.3%" y1="0%" x2="100%" y2="100%"><stop offset="20%" stop-color="#ffffff" stop-opacity="1"></stop><stop offset="80%" stop-color="#e1ccd7" stop-opacity="1"></stop></linearGradient></defs><defs><linearGradient id="grad1_2" x1="33.3%" y1="0%" x2="100%" y2="100%"><stop offset="20%" stop-color="#c39bb1" stop-opacity="1"></stop><stop offset="80%" stop-color="#e1ccd7" stop-opacity="1"></stop></linearGradient></defs><defs><linearGradient id="grad1_3" x1="33.3%" y1="0%" x2="100%" y2="100%"><stop offset="20%" stop-color="#c39bb1" stop-opacity="1"></stop><stop offset="80%" stop-color="#a46c8c" stop-opacity="1"></stop></linearGradient></defs><defs><linearGradient id="grad2_0" x1="0%" y1="0%" x2="66.7%" y2="100%"><stop offset="20%" stop-color="#ffffff" stop-opacity="1"></stop><stop offset="80%" stop-color="#ffffff" stop-opacity="1"></stop></linearGradient></defs><defs><linearGradient id="grad2_1" x1="0%" y1="0%" x2="66.7%" y2="100%"><stop offset="20%" stop-color="#e1ccd7" stop-opacity="1"></stop><stop offset="80%" stop-color="#ffffff" stop-opacity="1"></stop></linearGradient></defs><defs><linearGradient id="grad2_2" x1="0%" y1="0%" x2="66.7%" y2="100%"><stop offset="20%" stop-color="#e1ccd7" stop-opacity="1"></stop><stop offset="80%" stop-color="#c39bb1" stop-opacity="1"></stop></linearGradient></defs><defs><linearGradient id="grad2_3" x1="0%" y1="0%" x2="66.7%" y2="100%"><stop offset="20%" stop-color="#a46c8c" stop-opacity="1"></stop><stop offset="80%" stop-color="#c39bb1" stop-opacity="1"></stop></linearGradient></defs><g transform="translate(900, 0)"><path d="M0 486.7C-65.4 482.6 -130.8 478.4 -186.3 449.7C-241.7 421 -287.3 367.8 -314.7 314.7C-342 261.6 -351.3 208.6 -376.9 156.1C-402.6 103.7 -444.7 51.9 -486.7 0L0 0Z" fill="#b3849e"></path><path d="M0 365.1C-49.1 361.9 -98.1 358.8 -139.7 337.3C-181.3 315.7 -215.5 275.8 -236 236C-256.5 196.2 -263.5 156.4 -282.7 117.1C-301.9 77.8 -333.5 38.9 -365.1 0L0 0Z" fill="#d2b4c4"></path><path d="M0 243.4C-32.7 241.3 -65.4 239.2 -93.1 224.8C-120.9 210.5 -143.6 183.9 -157.3 157.3C-171 130.8 -175.6 104.3 -188.5 78.1C-201.3 51.9 -222.3 25.9 -243.4 0L0 0Z" fill="#f0e6eb"></path><path d="M0 121.7C-16.4 120.6 -32.7 119.6 -46.6 112.4C-60.4 105.2 -71.8 91.9 -78.7 78.7C-85.5 65.4 -87.8 52.1 -94.2 39C-100.6 25.9 -111.2 13 -121.7 0L0 0Z" fill="#ffffff"></path></g><g transform="translate(0, 600)"><path d="M0 -486.7C49.8 -448.7 99.6 -410.7 163 -393.6C226.5 -376.4 303.6 -380.2 344.2 -344.2C384.8 -308.2 388.8 -232.4 406.5 -168.4C424.2 -104.4 455.5 -52.2 486.7 0L0 0Z" fill="#b3849e"></path><path d="M0 -365.1C37.3 -336.5 74.7 -308 122.3 -295.2C169.9 -282.3 227.7 -285.2 258.1 -258.1C288.6 -231.1 291.6 -174.3 304.9 -126.3C318.1 -78.3 341.6 -39.1 365.1 0L0 0Z" fill="#d2b4c4"></path><path d="M0 -243.4C24.9 -224.4 49.8 -205.4 81.5 -196.8C113.2 -188.2 151.8 -190.1 172.1 -172.1C192.4 -154.1 194.4 -116.2 203.3 -84.2C212.1 -52.2 227.7 -26.1 243.4 0L0 0Z" fill="#f0e6eb"></path><path d="M0 -121.7C12.4 -112.2 24.9 -102.7 40.8 -98.4C56.6 -94.1 75.9 -95.1 86 -86C96.2 -77 97.2 -58.1 101.6 -42.1C106 -26.1 113.9 -13 121.7 0L0 0Z" fill="#ffffff"></path></g></svg>