<svg id="visual" viewBox="0 0 900 600" width="900" height="600" xmlns="http://www.w3.org/2000/svg" xmlns:xlink="http://www.w3.org/1999/xlink" version="1.1"><path d="M0 121L82 163L164 157L245 181L327 205L409 193L491 187L573 175L655 139L736 265L818 193L900 247L900 0L818 0L736 0L655 0L573 0L491 0L409 0L327 0L245 0L164 0L82 0L0 0Z" fill="#a46c8c"></path><path d="M0 199L82 223L164 247L245 295L327 295L409 253L491 235L573 283L655 229L736 313L818 307L900 295L900 245L818 191L736 263L655 137L573 173L491 185L409 191L327 203L245 179L164 155L82 161L0 119Z" fill="#b2859e"></path><path d="M0 289L82 277L164 391L245 433L327 391L409 409L491 289L573 409L655 337L736 379L818 379L900 379L900 293L818 305L736 311L655 227L573 281L491 233L409 251L327 293L245 293L164 245L82 221L0 197Z" fill="#bf9eb1"></path><path d="M0 337L82 349L164 493L245 505L327 463L409 499L491 373L573 499L655 403L736 469L818 427L900 457L900 377L818 377L736 377L655 335L573 407L491 287L409 407L327 389L245 431L164 389L82 275L0 287Z" fill="#ccb8c3"></path><path d="M0 601L82 601L164 601L245 601L327 601L409 601L491 601L573 601L655 601L736 601L818 601L900 601L900 455L818 425L736 467L655 401L573 497L491 371L409 497L327 461L245 503L164 491L82 347L0 335Z" fill="#d9d2d6"></path></svg>